<?xml version="1.0" encoding="utf-8"?>
<!-- Generator: Adobe Illustrator 16.0.3, SVG Export Plug-In . SVG Version: 6.00 Build 0)  -->
<!DOCTYPE svg PUBLIC "-//W3C//DTD SVG 1.1//EN" "http://www.w3.org/Graphics/SVG/1.1/DTD/svg11.dtd">
<svg version="1.1" id="Capa_1" xmlns="http://www.w3.org/2000/svg" xmlns:xlink="http://www.w3.org/1999/xlink" x="0px" y="0px"
	 width="780px" height="662px" viewBox="0 0 780 662" enable-background="new 0 0 780 662" xml:space="preserve">
<g>
	<path fill-rule="evenodd" clip-rule="evenodd" d="M564.254,253.568c13.672-10.753,26.578-21.48,40.083-31.394
		c21.659-15.898,44.353-29.816,71.197-35.658c20.496-4.461,37.904,1.666,51.081,16.616c8.184,9.284,13.974,21.042,17.41,33.486
		c2.46,8.909,5.822,17.599,4.971,27.1c-0.413,4.606-2.263,8.236-6.716,10.142c-3.836,1.641-7.935,2.508-11.02-0.873
		c-1.8-1.972-3.133-4.999-3.34-7.655c-0.358-4.609,0.406-9.297,0.545-13.956c0.382-12.822-0.201-25.609-5.69-37.433
		c-2.757-5.938-7.811-9.873-13.996-12.762c-19.003-8.874-36.781-2.226-53.832,4.913c-15.542,6.507-30.313,15.066-44.859,23.675
		c-12.57,7.438-24.378,16.173-36.454,24.435c-3.281,2.244-1.815,4.392,0.562,6.374c6.429,5.362,10.26,12.21,11.903,20.421
		c1.578,7.885-1.159,14.724-5.492,20.78c-6.538,9.141-15.598,13.997-27.143,13.171c-2.843-0.203-4.098,0.808-4.804,3.625
		c-4.324,17.234-12.054,33.194-18.593,49.617c-11.518,28.925-28.15,54.894-45.2,80.676c-20.586,31.128-44.869,59.189-71.563,85.123
		c-19.804,19.24-40.57,37.488-63.349,53.201c-3.472,2.396-9.559,4.523-12.681,3.052c-4.369-2.06-1.581-7.979-0.276-11.777
		c4.197-12.225,9.029-24.23,13.61-36.323c0.451-1.192,0.864-2.398,0.432-4.303c-1.806,1.705-3.658,3.364-5.411,5.122
		c-21.588,21.643-44.738,41.474-70.772,57.521c-23.389,14.418-48.104,26.174-75.706,30.277
		c-35.289,5.246-66.018-4.668-92.758-28.014c-23.662-20.659-38.657-46.317-46.766-76.615c-5.774-21.578-7.749-43.363-6.438-65.425
		c1.721-28.978,11.181-55.472,29.792-77.911c13.394-16.149,28.343-30.929,46.679-41.757c1.038-0.613,1.476-2.241,2.35-3.649
		c-4.409-2.521-8.639-4.927-12.855-7.355c-5.899-3.399-12.151-6.321-17.603-10.332c-10.209-7.511-20.539-15.035-29.727-23.709
		c-9.643-9.104-17.079-20.143-23.487-31.933c-5.501-10.122-10.139-20.425-12.563-31.667c-5.387-24.984-7.639-50.105-4.089-75.629
		c2.477-17.806,7.067-35.125,15.61-50.718c18.299-33.399,43.829-58.797,82.948-66.33c23.299-4.486,46.398-1.702,69.115,4.42
		c27.936,7.528,54.427,18.759,78.601,34.541c20.179,13.174,39.866,27.279,58.643,42.375c21.356,17.168,41.655,35.678,62.047,54.013
		c16.171,14.539,32.071,29.405,47.578,44.649c19.101,18.778,37.707,38.062,56.445,57.207c6.235,6.37,12.143,13.062,18.383,19.426
		c1.166,1.19,3.204,1.525,4.841,2.255c0.045-1.636,0.471-3.37,0.079-4.894c-5.45-21.184,6.104-37.954,26.094-40.435
		c4.479-0.556,6.143-2.384,7.143-6.45c6.894-28.011,16.757-54.931,30.461-80.357c8.63-16.013,19.227-30.622,34.777-40.501
		c10.381-6.594,22.268-8.762,34.54-6.158c11.657,2.474,22.405,6.938,31.44,15.106c5.263,4.758,11.277,8.703,16.381,13.611
		c3.879,3.731,7.392,8.09,10.096,12.735c3.433,5.896-0.836,15.017-7.47,16.221c-2.001,0.363-5.263-1.175-6.566-2.891
		c-5.702-7.502-10.795-15.463-16.306-23.115c-5.498-7.636-12.067-14.273-20.489-18.636c-12.409-6.427-26.244-4.701-39.702,7.234
		c-11.216,9.947-19.657,22.047-27.138,34.908c-13.877,23.859-24.355,49.262-34.145,74.979
		C564.697,250.997,564.579,252.136,564.254,253.568z M485.753,321.594c-2.879-0.538-4.768-0.924-6.667-1.239
		c-12.789-2.124-25.551-4.43-38.379-6.289c-11.35-1.645-22.757-2.933-34.166-4.115c-14.073-1.459-28.151-3.169-42.271-3.784
		c-11.231-0.49-22.556,0.111-33.787,0.937c-12.675,0.932-25.484,1.722-37.882,4.282c-13.959,2.883-27.669,7.235-41.223,11.744
		c-16.47,5.478-32.036,13.173-46.11,23.354c-11.961,8.651-23.086,18.336-32.403,30.018c-9.974,12.506-19.305,25.302-20.813,41.799
		c-0.566,6.189,0.04,12.645,1.162,18.786c1.292,7.073,6.397,11.208,13.388,12.608c7.375,1.478,14.79,3.501,22.23,3.705
		c8.775,0.241,17.597-1.213,26.398-1.933c0.302,0.426,0.604,0.853,0.906,1.278c-2.038,1.572-4.234,2.979-6.088,4.745
		c-9.361,8.913-18.915,17.648-27.868,26.96c-11.926,12.404-21.705,26.243-23.849,43.972c-1.873,15.487,3.791,28.431,18.69,33.326
		c14.637,4.81,29.608,2.985,44.16-1.108c20.088-5.65,38.028-15.913,55.323-27.28c44.484-29.237,82.069-66.271,117.64-105.419
		c19.896-21.898,38.893-44.617,58.21-67.039C463.379,348.105,474.232,335.164,485.753,321.594z M185.298,175.431
		c-0.393,0.409-0.786,0.818-1.179,1.228c-9.236-1.004-18.462-2.104-27.709-2.99c-13.511-1.295-26.66-1.052-39.263,5.561
		c-14.151,7.425-17.055,21.158-9.043,33.32c6.235,9.465,14.529,16.062,24.902,21.333c13.985,7.107,28.347,12.942,43.309,16.981
		c23.54,6.355,47.657,10.11,71.968,12.034c18.821,1.489,37.705,2.216,56.57,3.094c9.062,0.422,18.143,0.482,27.217,0.58
		c17.095,0.183,34.19,0.279,51.286,0.378c0.537,0.003,1.077-0.378,1.496-0.535c-5.027-8.799-9.776-17.398-14.796-25.837
		c-12.727-21.394-26.211-42.322-43.001-60.777c-8.997-9.889-18.799-19.132-28.919-27.877c-6.489-5.606-13.907-10.358-21.479-14.437
		c-9.41-5.067-19.123-9.902-29.231-13.248c-9.85-3.26-20.288-5.043-30.604-6.523c-14.441-2.071-28.688-0.56-41.779,6.363
		c-11.541,6.104-15.935,15.509-11.749,25.987c2.064,5.168,5.847,9.839,9.58,14.097C176.536,168.339,181.12,171.708,185.298,175.431z
		"/>
</g>
</svg>
